<svg width="33" height="34" viewBox="0 0 33 34" fill="none" xmlns="http://www.w3.org/2000/svg">
<path opacity="0.4" d="M21.8278 2.24292H8.93839C3.3519 2.24292 0 5.57863 0 11.1813V24.0545C0 29.6734 3.3519 33.0091 8.93839 33.0091H21.8116C27.4143 33.0091 30.75 29.6734 30.75 24.0707V11.1813C30.7662 5.57863 27.4143 2.24292 21.8278 2.24292Z" fill="#626262"/>
<path d="M30.7977 2.21038C27.8992 -0.704317 25.0655 -0.769089 22.086 2.21038L20.2563 4.02396C20.0943 4.18589 20.0458 4.41259 20.1105 4.6231C21.244 8.59032 24.4178 11.7641 28.385 12.8976C28.4336 12.9138 28.5146 12.9138 28.5631 12.9138C28.7251 12.9138 28.887 12.849 29.0003 12.7357L30.7977 10.9221C32.2713 9.44853 32.9999 8.03976 32.9999 6.59861C32.9999 5.14126 32.2713 3.70011 30.7977 2.21038Z" fill="#626262"/>
<path d="M25.68 14.2581C25.2428 14.0476 24.8218 13.8371 24.4331 13.5942C24.1093 13.3999 23.7854 13.1894 23.4778 12.9627C23.2187 12.8008 22.9272 12.5579 22.6357 12.315C22.6033 12.2988 22.5062 12.2179 22.3766 12.0883C21.8747 11.6835 21.3403 11.1329 20.8383 10.5338C20.806 10.5014 20.7088 10.4043 20.6278 10.2585C20.4659 10.0804 20.223 9.77275 20.0125 9.4327C19.8344 9.206 19.6239 8.88215 19.4296 8.5421C19.1867 8.13728 18.9762 7.73246 18.7819 7.31145C18.5714 6.85806 18.4094 6.43705 18.2637 6.03223L9.55203 14.7439C8.98528 15.3106 8.43473 16.3793 8.32138 17.1728L7.62509 21.9982C7.47936 23.0184 7.75463 23.9737 8.38615 24.6052C8.92051 25.1396 9.64918 25.4149 10.4588 25.4149C10.6369 25.4149 10.8151 25.3987 10.9932 25.3825L15.8024 24.7024C16.5958 24.589 17.6646 24.0547 18.2313 23.4717L26.943 14.7601C26.5382 14.6305 26.1334 14.4524 25.68 14.2581Z" fill="#626262"/>
</svg>
