<svg width="27" height="27" viewBox="0 0 27 27" fill="none" xmlns="http://www.w3.org/2000/svg">
<path d="M17.8881 1H9.11197C5.99909 1 5.3115 2.61711 4.91145 4.59937L3.49878 11.6547H23.5012L22.0886 4.59937C21.6885 2.61711 21.0009 1 17.8881 1Z" stroke="#ABABAB" stroke-width="1.5" stroke-linecap="round" stroke-linejoin="round"/>
<path d="M25.989 23.1569C26.1266 24.6827 24.9514 25.9998 23.4512 25.9998H21.1009C19.7508 25.9998 19.5633 25.3999 19.3257 24.6566L19.0757 23.8741C18.7257 22.8048 18.5006 22.0875 16.7004 22.0875H10.2996C8.49937 22.0875 8.23684 22.896 7.9243 23.8741L7.67427 24.6566C7.43674 25.3999 7.24922 25.9998 5.89905 25.9998H3.54876C2.04858 25.9998 0.873434 24.6827 1.01095 23.1569L1.71104 15.2148C1.88606 13.2586 2.2486 11.6545 5.52401 11.6545H21.476C24.7514 11.6545 25.1139 13.2586 25.289 15.2148L25.989 23.1569Z" stroke="#ABABAB" stroke-width="1.5" stroke-linecap="round" stroke-linejoin="round"/>
<path d="M3.49869 7.74219H2.24854" stroke="#ABABAB" stroke-width="1.5" stroke-linecap="round" stroke-linejoin="round"/>
<path d="M24.7514 7.74219H23.5012" stroke="#ABABAB" stroke-width="1.5" stroke-linecap="round" stroke-linejoin="round"/>
<path d="M13.5 1.22168V3.82992" stroke="#ABABAB" stroke-width="1.5" stroke-linecap="round" stroke-linejoin="round"/>
<path d="M11.6248 3.82983H15.3752" stroke="#ABABAB" stroke-width="1.5" stroke-linecap="round" stroke-linejoin="round"/>
<path d="M5.99902 16.8708H9.74949" stroke="#ABABAB" stroke-width="1.5" stroke-linecap="round" stroke-linejoin="round"/>
<path d="M17.2505 16.8708H21.0009" stroke="#ABABAB" stroke-width="1.5" stroke-linecap="round" stroke-linejoin="round"/>
</svg>
