<svg width="27" height="27" viewBox="0 0 27 27" fill="none" xmlns="http://www.w3.org/2000/svg">
<path d="M1 26H26" stroke="#ABABAB" stroke-width="1.5" stroke-linecap="round" stroke-linejoin="round"/>
<path d="M20.4507 11C22.7507 11 24.6132 12.675 24.6132 14.75V26" stroke="#ABABAB" stroke-width="1.5" stroke-linecap="round" stroke-linejoin="round"/>
<path d="M2.38672 26V14.75C2.38672 12.675 4.24922 11 6.54922 11H15.1242" stroke="#ABABAB" stroke-width="1.5" stroke-linecap="round" stroke-linejoin="round"/>
<path d="M5.45068 11V7.4625C5.45068 5.9625 6.80068 4.75 8.47568 4.75H18.5381C20.2006 4.75 21.5506 5.9625 21.5506 7.4625V11" stroke="#ABABAB" stroke-width="1.5" stroke-linecap="round" stroke-linejoin="round"/>
<path d="M24.0877 16H23.5252C22.6002 16 21.8377 16.75 21.8377 17.6875V18.075C21.8377 19 21.0877 19.7625 20.1502 19.7625C19.2252 19.7625 18.4627 19.0125 18.4627 18.075V17.6875C18.4627 16.7625 17.7127 16 16.7752 16C15.8502 16 15.0877 16.75 15.0877 17.6875V18.075C15.0877 19 14.3377 19.7625 13.4002 19.7625C12.4752 19.7625 11.7127 19.0125 11.7127 18.075V17.6875C11.7502 16.75 11.0002 16 10.0752 16C9.1502 16 8.3877 16.75 8.3877 17.6875" stroke="#ABABAB" stroke-width="1.5" stroke-linecap="round" stroke-linejoin="round"/>
<path d="M2.91162 15.9751L3.37412 15.9876C4.29912 16.0001 5.03662 16.7501 5.03662 17.6751V18.0876C5.03662 19.0126 5.78662 19.7751 6.72412 19.7751" stroke="#ABABAB" stroke-width="1.5" stroke-linecap="round" stroke-linejoin="round"/>
<path d="M8.5 4.75V2.25" stroke="#ABABAB" stroke-width="1.5" stroke-linecap="round" stroke-linejoin="round"/>
<path d="M18.5 4.75V2.25" stroke="#ABABAB" stroke-width="1.5" stroke-linecap="round" stroke-linejoin="round"/>
<path d="M13.5 4.75V1" stroke="#ABABAB" stroke-width="1.5" stroke-linecap="round" stroke-linejoin="round"/>
</svg>
