<svg width="29" height="27" viewBox="0 0 29 27" fill="none" xmlns="http://www.w3.org/2000/svg">
<path d="M27.7809 12.1509V3.68825C27.7809 2.0814 26.4686 0.889651 24.8751 1.02356H24.7948C21.9828 1.26458 17.7113 2.69736 15.3278 4.19709L15.1001 4.34438C14.7118 4.58541 14.0691 4.58541 13.6807 4.34438L13.346 4.14353C10.9625 2.65719 6.70432 1.2378 3.89233 1.01016C2.29887 0.876261 1 2.0814 1 3.67486V19.8504C1 21.1359 2.04445 22.3411 3.32993 22.5017L3.71826 22.5553C6.62398 22.9436 11.1098 24.4166 13.6807 25.8226L13.7343 25.8494C14.0958 26.0502 14.6716 26.0502 15.0198 25.8494C17.5907 24.43 22.0899 22.9436 25.009 22.5553L25.4509 22.5017C26.7364 22.3411 27.7809 21.1359 27.7809 19.8504V17.5473" stroke="#ABABAB" stroke-width="1.5" stroke-linecap="round" stroke-linejoin="round"/>
<path d="M14.3904 4.78613V24.8718" stroke="#ABABAB" stroke-width="1.5" stroke-linecap="round" stroke-linejoin="round"/>
<path d="M8.69961 8.80322H5.68677" stroke="#ABABAB" stroke-width="1.5" stroke-linecap="round" stroke-linejoin="round"/>
<path d="M9.7039 12.8206H5.68677" stroke="#ABABAB" stroke-width="1.5" stroke-linecap="round" stroke-linejoin="round"/>
</svg>
