<svg width="27" height="27" viewBox="0 0 27 27" fill="none" xmlns="http://www.w3.org/2000/svg">
<path d="M1 25.9868H26" stroke="white" stroke-width="1.5" stroke-miterlimit="10" stroke-linecap="round" stroke-linejoin="round"/>
<path d="M22.3408 25.9999V20.1313" stroke="white" stroke-width="1.5" stroke-miterlimit="10" stroke-linecap="round" stroke-linejoin="round"/>
<path d="M22.3638 11.3687C20.9774 11.3687 19.8638 12.6581 19.8638 14.2634V17.2502C19.8638 18.8555 20.9774 20.1449 22.3638 20.1449C23.7501 20.1449 24.8638 18.8555 24.8638 17.2502V14.2634C24.8638 12.6581 23.7501 11.3687 22.3638 11.3687Z" stroke="white" stroke-width="1.5" stroke-miterlimit="10" stroke-linecap="round" stroke-linejoin="round"/>
<path d="M2.25024 25.9867V4.97369C2.25024 2.32897 3.38666 1 5.64803 1H12.7275C14.9889 1 16.1139 2.32897 16.1139 4.97369V25.9867" stroke="white" stroke-width="1.5" stroke-miterlimit="10" stroke-linecap="round" stroke-linejoin="round"/>
<path d="M6.45435 7.89478H12.0794" stroke="white" stroke-width="1.5" stroke-miterlimit="10" stroke-linecap="round" stroke-linejoin="round"/>
<path d="M6.45435 12.8289H12.0794" stroke="white" stroke-width="1.5" stroke-miterlimit="10" stroke-linecap="round" stroke-linejoin="round"/>
<path d="M9.23853 25.9867V21.0525" stroke="white" stroke-width="1.5" stroke-miterlimit="10" stroke-linecap="round" stroke-linejoin="round"/>
</svg>
